<?xml version="1.0" encoding="UTF-8" standalone="no"?>
<!-- Created with Inkscape (http://www.inkscape.org/) -->

<svg
   width="16"
   height="16"
   viewBox="0 0 41.318889 31.870711"
   version="1.1"
   id="svg5"
   inkscape:export-filename="Logo3.png"
   inkscape:export-xdpi="96"
   inkscape:export-ydpi="96"
   inkscape:version="1.2.2 (b0a8486541, 2022-12-01)"
   sodipodi:docname="Logo.svg"
   xmlns:inkscape="http://www.inkscape.org/namespaces/inkscape"
   xmlns:sodipodi="http://sodipodi.sourceforge.net/DTD/sodipodi-0.dtd"
   xmlns="http://www.w3.org/2000/svg"
   xmlns:svg="http://www.w3.org/2000/svg">
  <sodipodi:namedview
     id="namedview7"
     pagecolor="#ffffff"
     bordercolor="#000000"
     borderopacity="0.25"
     inkscape:showpageshadow="2"
     inkscape:pageopacity="0.0"
     inkscape:pagecheckerboard="0"
     inkscape:deskcolor="#d1d1d1"
     inkscape:document-units="mm"
     showgrid="false"
     inkscape:zoom="22.612421"
     inkscape:cx="4.9530299"
     inkscape:cy="10.856865"
     inkscape:window-width="1920"
     inkscape:window-height="1132"
     inkscape:window-x="0"
     inkscape:window-y="0"
     inkscape:window-maximized="1"
     inkscape:current-layer="g1197">
    <inkscape:grid
       type="xygrid"
       id="grid226" />
  </sodipodi:namedview>
  <defs
     id="defs2">
    <clipPath
       clipPathUnits="userSpaceOnUse"
       id="clipPath1929">
      <path
         id="path1931"
         style="fill:#ff0000;fill-opacity:1;fill-rule:nonzero;stroke:none;stroke-width:0.264583"
         d="M 71.82705,3.6468213 V 35.517745 h 34.29248 v -6.312794 h -0.0248 c -0.0236,4e-6 -0.0472,-2.3e-5 -0.0708,0 -0.0134,1.7e-5 -0.0269,-5.6e-5 -0.0403,0 -2.2e-4,2.3e-5 -0.002,5.03e-4 -0.002,5.29e-4 -0.0549,0.0121 -0.12417,0.02482 -0.17364,0.02842 -0.0589,0.0064 -0.11794,0.01023 -0.17725,0.0093 h -0.0899 -0.0925 -0.0636 -0.0481 -0.0501 c -0.0185,0 -0.0368,-2e-6 -0.0553,0 -0.0192,2e-6 -0.0382,-1.4e-5 -0.0574,0 -0.0209,1.6e-5 -0.0417,-7.9e-5 -0.0625,0 -0.0189,8.9e-5 -0.038,1.72e-4 -0.0568,5.29e-4 -0.007,1.28e-4 -0.008,-2.91e-4 -0.006,-5.29e-4 -0.0477,0.0052 -0.0995,0.01118 -0.14728,0.0093 h -0.0589 -0.0651 -0.062 -0.0548 -0.0584 -0.0646 -0.0589 -0.0522 -0.0491 -0.0527 -0.0491 -0.046 -0.0527 c -0.0195,10e-7 -0.0389,-6e-6 -0.0584,0 -0.005,2e-6 -0.01,-3e-6 -0.0145,0 -0.0199,0.005 -0.0391,0.0087 -0.0791,0.01757 -0.0505,0.0084 -0.10329,0.01477 -0.1447,0.01757 -0.11498,0.0081 -0.23112,0.0021 -0.34365,-0.02377 -0.0125,-0.0031 -0.0248,-0.007 -0.0372,-0.01034 -0.0448,0.01308 -0.0898,0.02461 -0.13591,0.03307 -0.0922,0.01597 -0.18513,0.02844 -0.27854,0.03514 -0.0709,0.0039 -0.14192,0.0053 -0.21291,0.0047 h -0.14986 -0.1664 c -0.0578,0 -0.1153,-3e-6 -0.17311,0 -0.0573,4e-6 -0.11481,-2.7e-5 -0.17208,0 -0.0528,3.1e-5 -0.10533,-1.66e-4 -0.15813,0 -0.0461,2.01e-4 -0.0924,5.55e-4 -0.1385,0.0016 -0.0212,3.96e-4 -0.0424,5.82e-4 -0.0636,0.0021 -0.0506,0.0046 -0.10028,0.01567 -0.15089,0.02067 -0.0801,0.0075 -0.1603,0.01433 -0.24082,0.01395 -0.0371,2e-6 -0.0745,-1.3e-5 -0.11162,0 -0.036,1.5e-5 -0.072,-7.7e-5 -0.108,0 -0.0516,1.19e-4 -0.10292,7.14e-4 -0.15451,0.001 -0.0819,6.88e-4 -0.16365,0.0015 -0.24547,0.0036 -0.14265,0.0037 -0.28543,0.0087 -0.42788,0.01705 -0.18273,0.01106 -0.36545,0.02356 -0.548281,0.03256 -0.12564,0.0074 -0.251121,0.01277 -0.376722,0.02067 v 5.29e-4 c -1.970944,0.124646 -2.148361,-1.835192 -0.179318,-1.986959 0.146042,-0.01126 0.292528,-0.01714 0.438732,-0.02584 0.181835,-0.0089 0.363479,-0.02101 0.545189,-0.03204 0.16537,-0.0099 0.33102,-0.01534 0.49661,-0.01964 0.0933,-0.0024 0.18671,-0.0038 0.28008,-0.0047 0.0558,-4.49e-4 0.11163,-9.78e-4 0.16744,-10e-4 0.0373,-8.1e-5 0.0743,1.5e-5 0.11162,0 0.0349,-1.3e-5 0.0699,10e-7 0.1049,0 0.002,-6.62e-4 0.011,-0.0013 0.0259,-0.0021 0.003,-3.97e-4 0.003,-8.2e-4 0.005,-10e-4 0.0132,-0.0021 0.0266,-0.0038 0.0398,-0.0057 0.0409,-0.0059 0.0819,-0.01059 0.12299,-0.01499 0.0744,-0.0077 0.149,-0.0107 0.22376,-0.0124 0.0585,-0.0012 0.11715,-0.0012 0.17569,-0.0016 0.0549,-1.77e-4 0.10992,-4.76e-4 0.16485,-5.29e-4 0.0576,-2.7e-5 0.11499,4e-6 0.1726,0 0.0578,-4e-6 0.11578,0 0.17363,0 h 0.16692 0.14934 c 0.0276,-4.5e-4 0.0556,1.09e-4 0.0832,0 5.3e-4,-9.2e-5 0.002,-3.97e-4 0.003,-5.29e-4 2.6e-4,-1.18e-4 8e-4,1.17e-4 0.001,0 0.063,-0.02472 0.12748,-0.0456 0.19275,-0.06356 0.081,-0.02197 0.16404,-0.03374 0.24753,-0.04134 0.0413,-0.0034 0.0831,-0.0054 0.12454,-0.0062 0.11782,-0.0073 0.23097,0.01853 0.34675,0.03927 0.005,0.0013 0.009,0.0028 0.014,0.0041 0.035,-0.0028 0.0698,-0.0044 0.10491,-0.0052 0.0233,-4.5e-4 0.047,-4.5e-4 0.0703,-5.29e-4 0.0193,-4.6e-5 0.0381,8e-6 0.0574,0 0.0197,-7e-6 0.0397,1e-6 0.0594,0 h 0.0527 0.0455 0.0486 0.0537 0.0481 0.004 c -0.0265,-0.136612 -0.042,-0.286518 -0.0434,-0.450618 -7e-5,-0.0085 7e-5,-0.01682 0,-0.02532 -7.9e-4,-0.100279 -0.002,-0.20101 -0.004,-0.301273 -0.003,-0.125147 -0.006,-0.249878 -0.017,-0.374654 -0.0163,-0.209285 -0.0328,-0.418668 -0.0501,-0.627869 -0.0211,-0.28045 -0.0411,-0.561386 -0.0367,-0.842843 -5e-5,-0.248273 2.6e-4,-0.496901 0,-0.745174 -2.7e-4,-0.163508 -5.3e-4,-0.326911 -0.003,-0.490409 -0.002,-0.113188 -0.004,-0.226513 -0.0109,-0.339514 -0.007,-0.105136 -0.0174,-0.209707 -0.0351,-0.313676 -0.017,-0.103328 -0.0458,-0.203065 -0.0744,-0.303858 -0.0321,-0.145882 -0.0537,-0.293095 -0.0718,-0.441316 -0.0293,-0.233976 -0.0501,-0.469308 -0.0393,-0.705384 0.0114,-0.192318 0.0403,-0.38078 0.0925,-0.566373 0.0493,-0.215946 0.0855,-0.434025 0.0961,-0.655774 0.0213,-0.397965 0.0221,-0.796891 0.03,-1.195276 0.009,-0.474436 0.0221,-0.948503 0.0413,-1.422652 0.0184,-0.424515 0.0405,-0.849043 0.0522,-1.273824 0.005,-0.26789 0.006,-0.535869 -0.008,-0.803569 -0.01,-0.199664 -0.0245,-0.399179 -0.0326,-0.59893 -0.007,-0.188624 -0.0163,-0.377047 -0.014,-0.565857 2e-4,-0.195012 2e-4,-0.389966 0.001,-0.584977 0.001,-0.217124 0.003,-0.434563 0.008,-0.65164 0.006,-0.244929 0.0149,-0.489721 0.0372,-0.733805 0.0233,-0.232037 0.0522,-0.464276 0.11782,-0.688847 0.0121,-0.04503 0.0252,-0.08987 0.0357,-0.135392 h -0.009 -0.0419 -0.0444 -0.0486 -0.0434 -0.0429 -0.0429 -0.045 -0.0455 -0.0398 -0.0403 -0.0424 -0.0439 c -0.0153,0 -0.0307,-4e-6 -0.046,0 -0.005,1e-6 -0.0103,-3e-6 -0.0155,0 -0.033,0.0075 -0.0659,0.0138 -0.0997,0.01757 -0.002,1.81e-4 -0.004,3.44e-4 -0.006,5.29e-4 -0.0661,0.04684 -0.13397,0.08655 -0.19585,0.103352 -0.14496,0.03935 -0.29599,0.05241 -0.4439,0.07855 -0.0955,-0.126065 -0.19695,-0.248532 -0.29869,-0.37052 h -0.0367 -0.25063 c -1.97489,0 -1.97489,-1.9947104 0,-1.9947104 h 0.25063 0.15916 0.0827 0.0512 0.0388 c 0.009,-9.525e-4 0.0182,-0.00225 0.0274,-0.0031 0.0431,-0.00386 0.0865,-0.00564 0.12971,-0.00672 0.21699,-0.00341 0.43613,0.058002 0.61598,0.1798338 0.0126,-2.1e-6 0.0252,8e-7 0.0377,0 h 0.0444 0.0424 0.0403 0.0398 0.0455 0.045 0.0429 0.0429 0.0434 0.0486 0.0444 0.0419 0.0439 0.045 0.0429 0.047 0.0429 0.0424 0.0455 0.045 0.0532 0.0532 0.0558 0.0563 0.0517 0.046 0.0424 0.0408 0.0217 c 0.0365,-0.00333 0.0734,-0.00488 0.11007,-0.00568 0.0195,-3.704e-4 0.0389,-4.498e-4 0.0584,-5.292e-4 0.0167,-4.87e-5 0.0334,8.7e-6 0.0501,0 0.0144,-6.9e-6 0.029,1.1e-6 0.0434,0 h 0.0413 0.0419 0.0419 0.0424 0.0119 c 0.0108,-0.00161 0.005,-0.00103 0.0233,-0.00362 -5.3e-4,-1.6e-6 0.007,-8.732e-4 0.008,-0.00103 0.002,-5.556e-4 0.005,-0.00135 0.0284,-0.00465 0.009,-0.00127 0.0179,-0.00241 0.0269,-0.00362 0.0438,-0.0056 0.0877,-0.00863 0.13177,-0.010335 0.0226,-7.937e-4 0.0456,-8.731e-4 0.0682,-0.00103 0.0148,-9.18e-5 0.0296,1.62e-5 0.0444,0 0.0137,-1.24e-5 0.0267,2.2e-6 0.0403,0 0.0126,-1.5e-6 0.0252,0 0.0377,0 V 3.6468213 Z m 30.81414,6.9825197 c 0.003,0.0139 0.006,0.02587 0.009,0.03721 -0.003,-0.01231 -0.006,-0.02465 -0.009,-0.03721 z m 1.32964,0.602547 c -0.006,0.0052 -0.0124,0.01036 -0.0186,0.0155 -0.002,0.0016 0.004,-0.0029 0.006,-0.0047 0.004,-0.0038 0.008,-0.0067 0.0124,-0.01085 z" />
    </clipPath>
    <clipPath
       clipPathUnits="userSpaceOnUse"
       id="clipPath1929-3">
      <path
         id="path1931-6"
         style="fill:#ff0000;fill-opacity:1;fill-rule:nonzero;stroke:none;stroke-width:0.264583"
         d="M 71.82705,3.6468213 V 35.517745 h 34.29248 v -6.312794 h -0.0248 c -0.0236,4e-6 -0.0472,-2.3e-5 -0.0708,0 -0.0134,1.7e-5 -0.0269,-5.6e-5 -0.0403,0 -2.2e-4,2.3e-5 -0.002,5.03e-4 -0.002,5.29e-4 -0.0549,0.0121 -0.12417,0.02482 -0.17364,0.02842 -0.0589,0.0064 -0.11794,0.01023 -0.17725,0.0093 h -0.0899 -0.0925 -0.0636 -0.0481 -0.0501 c -0.0185,0 -0.0368,-2e-6 -0.0553,0 -0.0192,2e-6 -0.0382,-1.4e-5 -0.0574,0 -0.0209,1.6e-5 -0.0417,-7.9e-5 -0.0625,0 -0.0189,8.9e-5 -0.038,1.72e-4 -0.0568,5.29e-4 -0.007,1.28e-4 -0.008,-2.91e-4 -0.006,-5.29e-4 -0.0477,0.0052 -0.0995,0.01118 -0.14728,0.0093 h -0.0589 -0.0651 -0.062 -0.0548 -0.0584 -0.0646 -0.0589 -0.0522 -0.0491 -0.0527 -0.0491 -0.046 -0.0527 c -0.0195,10e-7 -0.0389,-6e-6 -0.0584,0 -0.005,2e-6 -0.01,-3e-6 -0.0145,0 -0.0199,0.005 -0.0391,0.0087 -0.0791,0.01757 -0.0505,0.0084 -0.10329,0.01477 -0.1447,0.01757 -0.11498,0.0081 -0.23112,0.0021 -0.34365,-0.02377 -0.0125,-0.0031 -0.0248,-0.007 -0.0372,-0.01034 -0.0448,0.01308 -0.0898,0.02461 -0.13591,0.03307 -0.0922,0.01597 -0.18513,0.02844 -0.27854,0.03514 -0.0709,0.0039 -0.14192,0.0053 -0.21291,0.0047 h -0.14986 -0.1664 c -0.0578,0 -0.1153,-3e-6 -0.17311,0 -0.0573,4e-6 -0.11481,-2.7e-5 -0.17208,0 -0.0528,3.1e-5 -0.10533,-1.66e-4 -0.15813,0 -0.0461,2.01e-4 -0.0924,5.55e-4 -0.1385,0.0016 -0.0212,3.96e-4 -0.0424,5.82e-4 -0.0636,0.0021 -0.0506,0.0046 -0.10028,0.01567 -0.15089,0.02067 -0.0801,0.0075 -0.1603,0.01433 -0.24082,0.01395 -0.0371,2e-6 -0.0745,-1.3e-5 -0.11162,0 -0.036,1.5e-5 -0.072,-7.7e-5 -0.108,0 -0.0516,1.19e-4 -0.10292,7.14e-4 -0.15451,0.001 -0.0819,6.88e-4 -0.16365,0.0015 -0.24547,0.0036 -0.14265,0.0037 -0.28543,0.0087 -0.42788,0.01705 -0.18273,0.01106 -0.36545,0.02356 -0.548281,0.03256 -0.12564,0.0074 -0.251121,0.01277 -0.376722,0.02067 v 5.29e-4 c -1.970944,0.124646 -2.148361,-1.835192 -0.179318,-1.986959 0.146042,-0.01126 0.292528,-0.01714 0.438732,-0.02584 0.181835,-0.0089 0.363479,-0.02101 0.545189,-0.03204 0.16537,-0.0099 0.33102,-0.01534 0.49661,-0.01964 0.0933,-0.0024 0.18671,-0.0038 0.28008,-0.0047 0.0558,-4.49e-4 0.11163,-9.78e-4 0.16744,-10e-4 0.0373,-8.1e-5 0.0743,1.5e-5 0.11162,0 0.0349,-1.3e-5 0.0699,10e-7 0.1049,0 0.002,-6.62e-4 0.011,-0.0013 0.0259,-0.0021 0.003,-3.97e-4 0.003,-8.2e-4 0.005,-10e-4 0.0132,-0.0021 0.0266,-0.0038 0.0398,-0.0057 0.0409,-0.0059 0.0819,-0.01059 0.12299,-0.01499 0.0744,-0.0077 0.149,-0.0107 0.22376,-0.0124 0.0585,-0.0012 0.11715,-0.0012 0.17569,-0.0016 0.0549,-1.77e-4 0.10992,-4.76e-4 0.16485,-5.29e-4 0.0576,-2.7e-5 0.11499,4e-6 0.1726,0 0.0578,-4e-6 0.11578,0 0.17363,0 h 0.16692 0.14934 c 0.0276,-4.5e-4 0.0556,1.09e-4 0.0832,0 5.3e-4,-9.2e-5 0.002,-3.97e-4 0.003,-5.29e-4 2.6e-4,-1.18e-4 8e-4,1.17e-4 0.001,0 0.063,-0.02472 0.12748,-0.0456 0.19275,-0.06356 0.081,-0.02197 0.16404,-0.03374 0.24753,-0.04134 0.0413,-0.0034 0.0831,-0.0054 0.12454,-0.0062 0.11782,-0.0073 0.23097,0.01853 0.34675,0.03927 0.005,0.0013 0.009,0.0028 0.014,0.0041 0.035,-0.0028 0.0698,-0.0044 0.10491,-0.0052 0.0233,-4.5e-4 0.047,-4.5e-4 0.0703,-5.29e-4 0.0193,-4.6e-5 0.0381,8e-6 0.0574,0 0.0197,-7e-6 0.0397,1e-6 0.0594,0 h 0.0527 0.0455 0.0486 0.0537 0.0481 0.004 c -0.0265,-0.136612 -0.042,-0.286518 -0.0434,-0.450618 -7e-5,-0.0085 7e-5,-0.01682 0,-0.02532 -7.9e-4,-0.100279 -0.002,-0.20101 -0.004,-0.301273 -0.003,-0.125147 -0.006,-0.249878 -0.017,-0.374654 -0.0163,-0.209285 -0.0328,-0.418668 -0.0501,-0.627869 -0.0211,-0.28045 -0.0411,-0.561386 -0.0367,-0.842843 -5e-5,-0.248273 2.6e-4,-0.496901 0,-0.745174 -2.7e-4,-0.163508 -5.3e-4,-0.326911 -0.003,-0.490409 -0.002,-0.113188 -0.004,-0.226513 -0.0109,-0.339514 -0.007,-0.105136 -0.0174,-0.209707 -0.0351,-0.313676 -0.017,-0.103328 -0.0458,-0.203065 -0.0744,-0.303858 -0.0321,-0.145882 -0.0537,-0.293095 -0.0718,-0.441316 -0.0293,-0.233976 -0.0501,-0.469308 -0.0393,-0.705384 0.0114,-0.192318 0.0403,-0.38078 0.0925,-0.566373 0.0493,-0.215946 0.0855,-0.434025 0.0961,-0.655774 0.0213,-0.397965 0.0221,-0.796891 0.03,-1.195276 0.009,-0.474436 0.0221,-0.948503 0.0413,-1.422652 0.0184,-0.424515 0.0405,-0.849043 0.0522,-1.273824 0.005,-0.26789 0.006,-0.535869 -0.008,-0.803569 -0.01,-0.199664 -0.0245,-0.399179 -0.0326,-0.59893 -0.007,-0.188624 -0.0163,-0.377047 -0.014,-0.565857 2e-4,-0.195012 2e-4,-0.389966 0.001,-0.584977 0.001,-0.217124 0.003,-0.434563 0.008,-0.65164 0.006,-0.244929 0.0149,-0.489721 0.0372,-0.733805 0.0233,-0.232037 0.0522,-0.464276 0.11782,-0.688847 0.0121,-0.04503 0.0252,-0.08987 0.0357,-0.135392 h -0.009 -0.0419 -0.0444 -0.0486 -0.0434 -0.0429 -0.0429 -0.045 -0.0455 -0.0398 -0.0403 -0.0424 -0.0439 c -0.0153,0 -0.0307,-4e-6 -0.046,0 -0.005,1e-6 -0.0103,-3e-6 -0.0155,0 -0.033,0.0075 -0.0659,0.0138 -0.0997,0.01757 -0.002,1.81e-4 -0.004,3.44e-4 -0.006,5.29e-4 -0.0661,0.04684 -0.13397,0.08655 -0.19585,0.103352 -0.14496,0.03935 -0.29599,0.05241 -0.4439,0.07855 -0.0955,-0.126065 -0.19695,-0.248532 -0.29869,-0.37052 h -0.0367 -0.25063 c -1.97489,0 -1.97489,-1.9947104 0,-1.9947104 h 0.25063 0.15916 0.0827 0.0512 0.0388 c 0.009,-9.525e-4 0.0182,-0.00225 0.0274,-0.0031 0.0431,-0.00386 0.0865,-0.00564 0.12971,-0.00672 0.21699,-0.00341 0.43613,0.058002 0.61598,0.1798338 0.0126,-2.1e-6 0.0252,8e-7 0.0377,0 h 0.0444 0.0424 0.0403 0.0398 0.0455 0.045 0.0429 0.0429 0.0434 0.0486 0.0444 0.0419 0.0439 0.045 0.0429 0.047 0.0429 0.0424 0.0455 0.045 0.0532 0.0532 0.0558 0.0563 0.0517 0.046 0.0424 0.0408 0.0217 c 0.0365,-0.00333 0.0734,-0.00488 0.11007,-0.00568 0.0195,-3.704e-4 0.0389,-4.498e-4 0.0584,-5.292e-4 0.0167,-4.87e-5 0.0334,8.7e-6 0.0501,0 0.0144,-6.9e-6 0.029,1.1e-6 0.0434,0 h 0.0413 0.0419 0.0419 0.0424 0.0119 c 0.0108,-0.00161 0.005,-0.00103 0.0233,-0.00362 -5.3e-4,-1.6e-6 0.007,-8.732e-4 0.008,-0.00103 0.002,-5.556e-4 0.005,-0.00135 0.0284,-0.00465 0.009,-0.00127 0.0179,-0.00241 0.0269,-0.00362 0.0438,-0.0056 0.0877,-0.00863 0.13177,-0.010335 0.0226,-7.937e-4 0.0456,-8.731e-4 0.0682,-0.00103 0.0148,-9.18e-5 0.0296,1.62e-5 0.0444,0 0.0137,-1.24e-5 0.0267,2.2e-6 0.0403,0 0.0126,-1.5e-6 0.0252,0 0.0377,0 V 3.6468213 Z m 30.81414,6.9825197 c 0.003,0.0139 0.006,0.02587 0.009,0.03721 -0.003,-0.01231 -0.006,-0.02465 -0.009,-0.03721 z m 1.32964,0.602547 c -0.006,0.0052 -0.0124,0.01036 -0.0186,0.0155 -0.002,0.0016 0.004,-0.0029 0.006,-0.0047 0.004,-0.0038 0.008,-0.0067 0.0124,-0.01085 z" />
    </clipPath>
  </defs>
  <g
     inkscape:label="Green"
     inkscape:groupmode="layer"
     id="layer1"
     style="display:none"
     transform="translate(-71.979998,-3.8312008)">
    <rect
       style="fill:none;fill-opacity:1;stroke:#21751e;stroke-width:1.5;stroke-linecap:round;stroke-linejoin:miter;stroke-dasharray:none;stroke-opacity:1"
       id="rect1603"
       width="78.232109"
       height="30.454027"
       x="15.041804"
       y="4.6371369"
       ry="0" />
    <rect
       style="fill:#ffffff;fill-opacity:1;stroke:none;stroke-width:1.5;stroke-linecap:round;stroke-linejoin:bevel;stroke-dasharray:none;stroke-opacity:1"
       id="rect3450"
       width="37.434605"
       height="21.102455"
       x="77.568527"
       y="9.5138226" />
    <text
       xml:space="preserve"
       style="font-style:italic;font-variant:normal;font-weight:normal;font-stretch:normal;font-size:24.6944px;line-height:0.5;font-family:Caladea;-inkscape-font-specification:'Caladea Italic';text-align:center;writing-mode:lr-tb;direction:ltr;text-anchor:middle;fill:#000000;stroke-width:0.264583"
       x="119.60123"
       y="28.263063"
       id="text120"><tspan
         sodipodi:role="line"
         id="tspan118"
         style="font-style:italic;font-variant:normal;font-weight:normal;font-stretch:normal;font-size:24.6944px;font-family:Caladea;-inkscape-font-specification:'Caladea Italic';text-align:center;writing-mode:lr-tb;direction:ltr;text-anchor:middle;stroke-width:0.264583"
         x="119.60123"
         y="28.263063"><tspan
   style="font-style:italic;font-variant:normal;font-weight:normal;font-stretch:normal;font-family:Caladea;-inkscape-font-specification:'Caladea Italic';text-align:center;writing-mode:lr-tb;direction:ltr;text-anchor:middle;fill:#21751e;fill-opacity:1"
   id="tspan282">ClinicalMatcher</tspan>.org</tspan></text>
  </g>
  <g
     inkscape:label="Blue copy"
     inkscape:groupmode="layer"
     id="g6209"
     style="display:none"
     transform="translate(-71.979998,-3.8312008)">
    <rect
       style="fill:none;fill-opacity:1;stroke:#1e5075;stroke-width:1.5;stroke-linecap:round;stroke-linejoin:miter;stroke-dasharray:none;stroke-opacity:1"
       id="rect6199"
       width="78.232109"
       height="30.454027"
       x="15.041804"
       y="4.6371369"
       ry="0" />
    <rect
       style="fill:#ffffff;fill-opacity:1;stroke:none;stroke-width:1.5;stroke-linecap:round;stroke-linejoin:bevel;stroke-dasharray:none;stroke-opacity:1"
       id="rect6201"
       width="37.434605"
       height="21.102455"
       x="77.568527"
       y="9.5138226" />
    <text
       xml:space="preserve"
       style="font-style:italic;font-variant:normal;font-weight:normal;font-stretch:normal;font-size:24.6944px;line-height:0.5;font-family:Caladea;-inkscape-font-specification:'Caladea Italic';text-align:center;writing-mode:lr-tb;direction:ltr;text-anchor:middle;display:inline;fill:#000000;stroke-width:0.264583"
       x="119.60123"
       y="28.263063"
       id="text6207"><tspan
         sodipodi:role="line"
         id="tspan6205"
         style="font-style:italic;font-variant:normal;font-weight:normal;font-stretch:normal;font-size:24.6944px;font-family:Caladea;-inkscape-font-specification:'Caladea Italic';text-align:center;writing-mode:lr-tb;direction:ltr;text-anchor:middle;stroke-width:0.264583"
         x="119.60123"
         y="28.263063"><tspan
   style="font-style:italic;font-variant:normal;font-weight:normal;font-stretch:normal;font-family:Caladea;-inkscape-font-specification:'Caladea Italic';text-align:center;writing-mode:lr-tb;direction:ltr;text-anchor:middle;fill:#3f1e75;fill-opacity:1"
   id="tspan6203">ClinicalMatcher</tspan>.org</tspan></text>
  </g>
  <g
     inkscape:label="Blue Different Font"
     inkscape:groupmode="layer"
     id="g3655"
     style="display:none"
     transform="translate(-71.979998,-3.8312008)">
    <rect
       style="fill:none;fill-opacity:1;stroke:#3b82f6;stroke-width:1.5;stroke-linecap:round;stroke-linejoin:miter;stroke-dasharray:none;stroke-opacity:1"
       id="rect3645"
       width="84.274399"
       height="30.613148"
       x="14.970594"
       y="4.3830671"
       ry="0"
       inkscape:label="rect3645" />
    <rect
       style="fill:#dbeafe;fill-opacity:1;stroke:none;stroke-width:1.5;stroke-linecap:round;stroke-linejoin:bevel;stroke-dasharray:none;stroke-opacity:1"
       id="rect3647"
       width="37.504051"
       height="19.68705"
       x="77.568527"
       y="9.5138226" />
    <text
       xml:space="preserve"
       style="font-style:italic;font-variant:normal;font-weight:normal;font-stretch:normal;font-size:21.1667px;line-height:0.5;font-family:Caladea;-inkscape-font-specification:'Caladea Italic';text-align:center;writing-mode:lr-tb;direction:ltr;text-anchor:middle;fill:#172554;fill-opacity:1;stroke-width:0.264583"
       x="108.36239"
       y="27.610817"
       id="text3653"
       inkscape:label="text3653"><tspan
         sodipodi:role="line"
         id="tspan3651"
         style="font-style:normal;font-variant:normal;font-weight:normal;font-stretch:normal;font-size:21.1667px;font-family:Comfortaa;-inkscape-font-specification:Comfortaa;text-align:center;writing-mode:lr-tb;direction:ltr;text-anchor:middle;fill:#172554;fill-opacity:1;stroke-width:0.264583"
         x="108.36239"
         y="27.610817">CM<tspan
   style="font-style:normal;font-variant:normal;font-weight:normal;font-stretch:normal;font-size:21.1667px;font-family:Comfortaa;-inkscape-font-specification:Comfortaa;text-align:center;writing-mode:lr-tb;direction:ltr;text-anchor:middle;fill:#172554;fill-opacity:1"
   id="tspan3649" /></tspan></text>
  </g>
  <g
     inkscape:label="Green Different Font copy"
     inkscape:groupmode="layer"
     id="g6315"
     style="display:none"
     transform="translate(-71.979998,-3.8312008)">
    <rect
       style="display:inline;fill:none;fill-opacity:1;stroke:#21751e;stroke-width:1.5;stroke-linecap:round;stroke-linejoin:miter;stroke-dasharray:none;stroke-opacity:1"
       id="rect6305"
       width="84.224274"
       height="30.417103"
       x="15.084882"
       y="4.7145009"
       ry="0" />
    <rect
       style="fill:#ffffff;fill-opacity:1;stroke:none;stroke-width:1.5;stroke-linecap:round;stroke-linejoin:bevel;stroke-dasharray:none;stroke-opacity:1"
       id="rect6307"
       width="37.438118"
       height="19.651005"
       x="77.568527"
       y="9.5138226" />
    <text
       xml:space="preserve"
       style="font-style:italic;font-variant:normal;font-weight:normal;font-stretch:normal;font-size:21.1667px;line-height:0.5;font-family:Caladea;-inkscape-font-specification:'Caladea Italic';text-align:center;writing-mode:lr-tb;direction:ltr;text-anchor:middle;fill:#21751e;fill-opacity:1;stroke-width:0.264583"
       x="129.13544"
       y="27.86137"
       id="text6313"><tspan
         sodipodi:role="line"
         id="tspan6311"
         style="font-style:normal;font-variant:normal;font-weight:normal;font-stretch:normal;font-size:21.1667px;font-family:Comfortaa;-inkscape-font-specification:Comfortaa;text-align:center;writing-mode:lr-tb;direction:ltr;text-anchor:middle;fill:#21751e;fill-opacity:1;stroke-width:0.264583"
         x="129.13544"
         y="27.86137">ClinicalMatcher<tspan
   style="font-style:normal;font-variant:normal;font-weight:normal;font-stretch:normal;font-family:Comfortaa;-inkscape-font-specification:Comfortaa;fill:#010501;fill-opacity:1"
   id="tspan6971">.org</tspan></tspan></text>
  </g>
  <g
     inkscape:label="Blue Different Font"
     inkscape:groupmode="layer"
     id="g1197"
     style="display:inline"
     transform="translate(-71.827189,-3.6470342)"
     inkscape:export-filename="Logo.svg"
     inkscape:export-xdpi="96"
     inkscape:export-ydpi="96">
    <rect
       style="display:inline;fill:#ffffff;fill-opacity:1;stroke:none;stroke-width:14.6405;stroke-linecap:round"
       id="rect4890"
       width="42.518257"
       height="31.764791"
       x="71.889198"
       y="3.6735668" />
    <rect
       style="display:inline;fill:#dbeafe;fill-opacity:1;stroke:none;stroke-width:1.5;stroke-linecap:round;stroke-linejoin:miter;stroke-dasharray:none;stroke-opacity:1"
       id="rect3645-2"
       width="33.500423"
       height="31.473698"
       x="71.9506"
       y="3.7318239"
       ry="0"
       inkscape:label="rect3645" />
    <rect
       style="display:inline;fill:none;fill-opacity:1;stroke:#3b82f6;stroke-width:1.5;stroke-linecap:round;stroke-linejoin:miter;stroke-dasharray:none;stroke-opacity:1"
       id="rect1189"
       width="32.792576"
       height="30.370853"
       x="72.577187"
       y="4.3970342"
       ry="0"
       inkscape:label="rect3645"
       clip-path="url(#clipPath1929)" />
    <text
       xml:space="preserve"
       style="font-style:italic;font-variant:normal;font-weight:normal;font-stretch:normal;font-size:21.1667px;line-height:0.5;font-family:Caladea;-inkscape-font-specification:'Caladea Italic';text-align:center;writing-mode:lr-tb;direction:ltr;text-anchor:middle;display:inline;fill:#172554;fill-opacity:1;stroke-width:0.264583"
       x="96.720726"
       y="27.610817"
       id="text1195"
       inkscape:label="text3653"><tspan
         sodipodi:role="line"
         id="tspan1193"
         style="font-style:normal;font-variant:normal;font-weight:normal;font-stretch:normal;font-size:21.1667px;font-family:Comfortaa;-inkscape-font-specification:Comfortaa;text-align:center;writing-mode:lr-tb;direction:ltr;text-anchor:middle;fill:#172554;fill-opacity:1;stroke-width:0.264583"
         x="96.720726"
         y="27.610817"><tspan
           style="font-style:normal;font-variant:normal;font-weight:normal;font-stretch:normal;font-size:21.1667px;font-family:Comfortaa;-inkscape-font-specification:Comfortaa;text-align:center;writing-mode:lr-tb;direction:ltr;text-anchor:middle;fill:#172554;fill-opacity:1"
           id="tspan1191">CM</tspan></tspan></text>
  </g>
</svg>
